<svg preserveAspectRatio="none" width="100%" height="100%" overflow="visible" style="display: block;" viewBox="0 0 60 60" fill="none" xmlns="http://www.w3.org/2000/svg">
<g id="uil-shutter-alt">
<path id="Vector" d="M55 27.5C54.9893 27.3669 54.9893 27.2331 55 27.1C55 26.4 54.8 25.7 54.675 25C54.2178 22.9288 53.4864 20.9278 52.5 19.05C50.8159 15.6043 48.3616 12.5923 45.327 10.247C42.2925 7.9017 38.759 6.28603 35 5.525L32.9 5.2H32.5H31.775H31.575L30 5C29.15 5 28.3 5 27.5 5H27.1L25 5.5C20.2001 6.48423 15.7953 8.85723 12.3328 12.3241C8.87042 15.791 6.50307 20.1989 5.525 25C5.4 25.7 5.3 26.4 5.2 27.1C5.21068 27.2331 5.21068 27.3669 5.2 27.5C5.2 28.325 5.2 29.175 5.2 30C5.2 30.825 5.2 31.7 5.2 32.5C5.21068 32.6331 5.21068 32.7669 5.2 32.9C5.2 33.6 5.4 34.3 5.525 35C5.91866 37.0616 6.58273 39.0622 7.5 40.95C9.18411 44.3957 11.6384 47.4077 14.673 49.753C17.7075 52.0983 21.241 53.714 25 54.475L27.1 54.8L27.5 55H28.35H28.7C29.15 55 29.575 55 30.025 55C30.875 55 31.725 55 32.525 54.875H32.925L35 54.5C39.7999 53.5158 44.2047 51.1428 47.6672 47.6759C51.1296 44.209 53.4969 39.8011 54.475 35C54.6 34.3 54.7 33.6 54.8 32.9C54.8546 32.761 54.9215 32.6271 55 32.5C55 31.675 55.125 30.825 55.125 30C55.125 29.175 55 28.3 55 27.5ZM32.9 10.25L34.15 10.425C38.6694 11.3897 42.7153 13.8897 45.6 17.5H28.55L32.9 10.25ZM26.05 10.45L27.05 10.3L18.45 25L14.25 17.7C17.159 13.9708 21.2956 11.3933 25.925 10.425L26.05 10.45ZM11.475 37.5C11.0233 36.392 10.6718 35.2458 10.425 34.075C10.425 33.525 10.225 32.95 10.175 32.375C10.163 32.2754 10.163 32.1746 10.175 32.075C10.0416 30.7283 10.0416 29.3717 10.175 28.025C10.163 27.9254 10.163 27.8246 10.175 27.725C10.175 27.15 10.325 26.575 10.425 26.025C10.6449 24.9076 10.9628 23.8117 11.375 22.75L20 37.5H11.475ZM27.225 49.775L25.975 49.6C21.4067 48.6557 17.3123 46.1441 14.4 42.5H31.45L27.225 49.775ZM25.675 37.5L21.35 30L25.675 22.5H34.325L38.65 30L34.325 37.5H25.675ZM34.075 49.575L33.075 49.725L41.55 35L45.75 42.3C42.841 46.0292 38.7044 48.6067 34.075 49.575ZM49.9 32.075C49.912 32.1746 49.912 32.2754 49.9 32.375C49.9 32.95 49.75 33.525 49.65 34.075C49.4245 35.1585 49.1066 36.2207 48.7 37.25L40 22.5H48.425C48.8767 23.608 49.2282 24.7542 49.475 25.925C49.475 26.475 49.675 27.05 49.725 27.625C49.737 27.7246 49.737 27.8254 49.725 27.925C49.8584 29.2717 49.8584 30.6283 49.725 31.975L49.9 32.075Z" fill="var(--fill-0, #179CBD)"/>
</g>
</svg>
