<svg preserveAspectRatio="none" width="100%" height="100%" overflow="visible" style="display: block;" viewBox="0 0 48 48" fill="none" xmlns="http://www.w3.org/2000/svg">
  <g id="Google__G__logo 1">
    <path id="Vector" d="M45.12 24.5C45.12 22.94 44.98 21.44 44.72 20H24V28.52H35.84C35.32 31.26 33.76 33.58 31.42 35.14V40.68H38.56C42.72 36.84 45.12 31.2 45.12 24.5Z" fill="#4285F4"/>
    <path id="Vector_2" d="M24 46C29.94 46 34.92 44.04 38.56 40.68L31.42 35.14C29.46 36.46 26.96 37.26 24 37.26C18.28 37.26 13.42 33.4 11.68 28.2H4.36V33.88C7.98 41.06 15.4 46 24 46Z" fill="#34A853"/>
    <path id="Vector_3" d="M11.68 28.18C11.24 26.86 10.98 25.46 10.98 24C10.98 22.54 11.24 21.14 11.68 19.82V14.14H4.36C2.86 17.1 2 20.44 2 24C2 27.56 2.86 30.9 4.36 33.86L10.06 29.42L11.68 28.18Z" fill="#FBBC05"/>
    <path id="Vector_4" d="M24 10.76C27.24 10.76 30.12 11.88 32.42 14.04L38.72 7.74C34.9 4.18 29.94 2 24 2C15.4 2 7.98 6.94 4.36 14.14L11.68 19.82C13.42 14.62 18.28 10.76 24 10.76Z" fill="#EA4335"/>
  </g>
</svg>
