<svg preserveAspectRatio="none" width="100%" height="100%" overflow="visible" style="display: block;" viewBox="0 0 60 60" fill="none" xmlns="http://www.w3.org/2000/svg">
<g id="uil-play-circle">
<path id="Vector" d="M40 25.675L27.5 18.45C26.7403 18.0114 25.8785 17.7804 25.0013 17.7801C24.124 17.7799 23.2622 18.0105 22.5022 18.4487C21.7423 18.887 21.111 19.5174 20.6718 20.2768C20.2326 21.0362 20.0009 21.8978 20 22.775V37.225C20.0009 38.1018 20.2324 38.963 20.6712 39.7221C21.1099 40.4812 21.7407 41.1116 22.5 41.55C23.2601 41.9888 24.1223 42.2199 25 42.2199C25.8777 42.2199 26.7399 41.9888 27.5 41.55L40 34.325C40.7577 33.8855 41.3866 33.2546 41.8238 32.4956C42.261 31.7365 42.4911 30.8759 42.4911 30C42.4911 29.1241 42.261 28.2635 41.8238 27.5044C41.3866 26.7454 40.7577 26.1145 40 25.675ZM37.5 30L25 37.225V22.775L37.5 30ZM30 5C25.0555 5 20.222 6.46622 16.1107 9.21326C11.9995 11.9603 8.7952 15.8648 6.90301 20.4329C5.01082 25.0011 4.51574 30.0277 5.48037 34.8773C6.445 39.7268 8.82602 44.1814 12.3223 47.6777C15.8186 51.174 20.2732 53.555 25.1227 54.5196C29.9723 55.4843 34.9989 54.9892 39.5671 53.097C44.1352 51.2048 48.0397 48.0005 50.7867 43.8893C53.5338 39.778 55 34.9445 55 30C55 26.717 54.3534 23.4661 53.097 20.4329C51.8406 17.3998 49.9991 14.6438 47.6777 12.3223C45.3562 10.0009 42.6002 8.15938 39.5671 6.90301C36.5339 5.64664 33.283 5 30 5ZM30 50C26.0444 50 22.1776 48.827 18.8886 46.6294C15.5996 44.4318 13.0362 41.3082 11.5224 37.6537C10.0087 33.9991 9.61259 29.9778 10.3843 26.0982C11.156 22.2186 13.0608 18.6549 15.8579 15.8579C18.6549 13.0608 22.2186 11.156 26.0982 10.3843C29.9778 9.61259 33.9991 10.0087 37.6537 11.5224C41.3082 13.0362 44.4318 15.5996 46.6294 18.8886C48.827 22.1776 50 26.0444 50 30C50 35.3043 47.8929 40.3914 44.1421 44.1421C40.3914 47.8929 35.3043 50 30 50Z" fill="var(--fill-0, #179CBD)" fill-opacity="0.9"/>
</g>
</svg>
