<svg preserveAspectRatio="none" width="100%" height="100%" overflow="visible" style="display: block;" viewBox="0 0 39.8126 40.05" fill="none" xmlns="http://www.w3.org/2000/svg">
<path id="Vector" d="M29.2 24.05C28.8 23.85 26.2 22.65 25.8 22.45C25.4 22.25 25 22.25 24.6 22.65C24.2 23.05 23.4 24.25 23 24.65C22.8 25.05 22.4 25.05 22 24.85C20.6 24.25 19.2 23.45 18 22.45C17 21.45 16 20.25 15.2 19.05C15 18.65 15.2 18.25 15.4 18.05C15.6 17.85 15.8 17.45 16.2 17.25C16.4 17.05 16.6 16.65 16.6 16.45C16.8 16.25 16.8 15.85 16.6 15.65C16.4 15.45 15.4 13.05 15 12.05C14.8 10.65 14.4 10.65 14 10.65H13C12.6 10.65 12 11.05 11.8 11.25C10.6 12.45 10 13.85 10 15.45C10.2 17.25 10.8 19.05 12 20.65C14.2 23.85 17 26.45 20.4 28.05C21.4 28.45 22.2 28.85 23.2 29.05C24.2 29.45 25.2 29.45 26.4 29.25C27.8 29.05 29 28.05 29.8 26.85C30.2 26.05 30.2 25.25 30 24.45L29.2 24.05ZM34.2 5.85C26.4 -1.95 13.8 -1.95 6 5.85C-0.4 12.25 -1.6 22.05 2.8 29.85L0 40.05L10.6 37.25C13.6 38.85 16.8 39.65 20 39.65C31 39.65 39.8 30.85 39.8 19.85C40 14.65 37.8 9.65 34.2 5.85ZM28.8 33.85C26.2 35.45 23.2 36.45 20 36.45C17 36.45 14.2 35.65 11.6 34.25L11 33.85L4.8 35.45L6.4 29.45L6 28.85C1.2 20.85 3.6 10.85 11.4 5.85C19.2 0.85 29.2 3.45 34 11.05C38.8 18.85 36.6 29.05 28.8 33.85Z" fill="var(--fill-0, #526E87)"/>
</svg>
