<svg preserveAspectRatio="none" width="100%" height="100%" overflow="visible" style="display: block;" viewBox="0 0 19.212 24" fill="none" xmlns="http://www.w3.org/2000/svg">
<path id="Pinterest" d="M9.94279 0C3.44167 0 0 4.3581 0 9.1C0 11.3166 1.17647 14.0518 3.05788 14.9322C3.34299 15.0685 3.50277 15.0058 3.56543 14.7348C3.61556 14.5233 3.87561 13.4957 3.98683 13.0257C4.02443 12.8769 4.0119 12.7406 3.88814 12.5934C3.26936 11.8383 2.77277 10.4504 2.77277 9.16423C2.77277 5.84474 5.28705 2.63804 9.56996 2.63804C13.2717 2.63804 15.8596 5.15077 15.8596 8.75536C15.8596 12.8158 13.8043 15.6403 11.1302 15.6403C9.65613 15.6403 8.54231 14.4153 8.90104 12.9161C9.33497 11.1208 10.1512 9.19086 10.1512 7.90317C10.1512 6.75177 9.53236 5.78521 8.24467 5.78521C6.73453 5.78521 5.52047 7.34548 5.52047 9.43837C5.52047 10.7637 5.96694 11.6676 5.96694 11.6676C5.96694 11.6676 4.48029 17.9697 4.20771 19.1462C3.91007 20.4464 4.01816 22.6599 4.15758 23.4683C4.23591 23.921 4.96592 24.181 5.16017 23.8521C5.45311 23.3539 6.69537 21.2156 7.03061 19.9028C7.21546 19.1963 7.97053 16.3233 7.97053 16.3233C8.45459 17.2648 9.88953 18.0574 11.4122 18.0574C15.9442 18.0574 19.212 13.8858 19.212 8.6974C19.212 3.50904 15.15 0.00469964 9.93811 0.00469964L9.94279 0Z" fill="var(--fill-0, white)"/>
</svg>
