<svg preserveAspectRatio="none" width="100%" height="100%" overflow="visible" style="display: block;" viewBox="0 0 34.063 24" fill="none" xmlns="http://www.w3.org/2000/svg">
<path id="Youtube" d="M33.3514 3.74722C32.96 2.27279 31.8058 1.10971 30.3402 0.716086C27.6827 2.65106e-07 17.0304 0 17.0304 0C17.0304 0 6.37806 2.65106e-07 3.72276 0.716086C2.25723 1.10971 1.10304 2.27279 0.711641 3.74722C2.70408e-06 6.42031 0 12 0 12C0 12 2.70408e-06 17.5797 0.711641 20.2528C1.10304 21.7272 2.25723 22.8903 3.72276 23.2839C6.38028 24 17.0304 24 17.0304 24C17.0304 24 27.6827 24 30.3402 23.2839C31.8058 22.8903 32.96 21.7272 33.3514 20.2528C34.063 17.5797 34.063 12 34.063 12C34.063 12 34.063 6.42031 33.3514 3.74722ZM13.5478 17.0638V6.93403L22.45 12L13.5478 17.066V17.0638Z" fill="var(--fill-0, white)"/>
</svg>
