<svg preserveAspectRatio="none" width="100%" height="100%" overflow="visible" style="display: block;" viewBox="0 0 27.5738 24" fill="none" xmlns="http://www.w3.org/2000/svg">
<path id="Vimeo" d="M23.5561 0.00497827C19.7336 -0.11833 17.1441 2.04898 15.7898 6.51735C16.4899 6.2143 17.1692 6.06173 17.8296 6.06173C19.232 6.06173 19.8506 6.85592 19.6855 8.43803C19.6019 9.39733 18.9833 10.7934 17.8296 12.6284C16.6738 14.4634 15.8065 15.3809 15.2297 15.3809C14.4856 15.3809 13.8064 13.9681 13.1878 11.1404C12.9788 10.3107 12.6088 8.18933 12.0717 4.78057C11.5764 1.62262 10.2555 0.145007 8.10912 0.354004C7.19998 0.437603 5.83731 1.26732 4.02321 2.84526C2.70234 4.04908 1.36057 5.25291 0 6.45465L1.29789 8.13708C2.53307 7.26765 3.2562 6.83084 3.46101 6.83084C4.40777 6.83084 5.29183 8.32518 6.11737 11.3097C6.85931 14.0475 7.60125 16.7833 8.3432 19.5212C9.45506 22.5078 10.8136 24 12.4207 24C15.0165 24 18.187 21.5485 21.9364 16.6454C25.5625 11.9513 27.4372 8.25412 27.5605 5.55387C27.7235 1.9403 26.3881 0.090667 23.5541 0.00706789L23.5561 0.00497827Z" fill="var(--fill-0, white)"/>
</svg>
