<svg preserveAspectRatio="none" width="100%" height="100%" overflow="visible" style="display: block;" viewBox="0 0 24.238 24" fill="none" xmlns="http://www.w3.org/2000/svg">
<path d="M5.422 24H0.398V7.813H5.422V24ZM2.906 5.602C1.301 5.602 0 4.273 0 2.684C0 1.094 1.301 0 2.906 0C4.508 0 5.809 1.094 5.809 2.684C5.809 4.273 4.508 5.602 2.906 5.602ZM24.238 24H19.223V16.125C19.223 14.246 19.184 11.836 16.609 11.836C13.992 11.836 13.59 13.879 13.59 15.988V24H8.57V7.813H13.391V10.023H13.461C14.133 8.75 15.773 7.406 18.219 7.406C23.309 7.406 24.238 10.758 24.238 15.113V24Z" fill="var(--fill-0, white)"/>
</svg>
