<svg preserveAspectRatio="none" width="100%" height="100%" overflow="visible" style="display: block;" viewBox="0 0 24 24" fill="none" xmlns="http://www.w3.org/2000/svg">
<path id="Instagram" d="M21.3547 4.91938C21.137 4.35927 20.8762 3.95919 20.4569 3.53991C20.036 3.12062 19.6375 2.85977 19.0758 2.64213C18.6533 2.4773 18.018 2.28206 16.8466 2.22925C15.5807 2.17163 15.2014 2.15883 11.9976 2.15883C8.79376 2.15883 8.41288 2.17163 7.14863 2.22925C5.9788 2.28206 5.34347 2.4789 4.91938 2.64213C4.35927 2.85977 3.95919 3.12062 3.53991 3.53991C3.12062 3.95919 2.85977 4.35927 2.64213 4.91938C2.4773 5.34187 2.28206 5.9772 2.22925 7.14863C2.17163 8.41448 2.15883 8.79376 2.15883 11.9992C2.15883 15.2046 2.17163 15.5839 2.22925 16.8482C2.28206 18.018 2.4789 18.6533 2.64213 19.0774C2.85977 19.6375 3.12062 20.0376 3.53991 20.4569C3.95919 20.8762 4.35927 21.137 4.91938 21.3547C5.34187 21.5195 5.9772 21.7147 7.14863 21.7676C8.41448 21.8252 8.79376 21.838 11.9976 21.838C15.2014 21.838 15.5823 21.8252 16.8466 21.7676C18.0164 21.7147 18.6533 21.5179 19.0758 21.3547C19.6359 21.137 20.036 20.8762 20.4569 20.4569C20.8762 20.0376 21.137 19.6375 21.3547 19.0774C21.5195 18.6549 21.7147 18.0196 21.7676 16.8482C21.8252 15.5823 21.838 15.203 21.838 11.9992C21.838 8.79536 21.8252 8.41448 21.7676 7.14863C21.7147 5.9788 21.5179 5.34347 21.3547 4.91938ZM11.9992 18.162C8.59532 18.162 5.83637 15.4031 5.83637 11.9992C5.83637 8.59532 8.59532 5.83637 11.9992 5.83637C15.4031 5.83637 18.162 8.59532 18.162 11.9992C18.162 15.4031 15.4031 18.162 11.9992 18.162ZM18.4053 7.03181C17.6099 7.03181 16.965 6.38688 16.965 5.59152C16.965 4.79616 17.6099 4.15123 18.4053 4.15123C19.2006 4.15123 19.8456 4.79616 19.8456 5.59152C19.8456 6.38688 19.2006 7.03181 18.4053 7.03181ZM11.9992 7.9984C9.78916 7.9984 7.9984 9.78916 7.9984 11.9992C7.9984 14.2092 9.78916 16 11.9992 16C14.2092 16 16 14.2092 16 11.9992C16 9.78916 14.2092 7.9984 11.9992 7.9984ZM23.928 16.9474C23.8688 18.2244 23.6671 19.0966 23.3711 19.86C23.0638 20.6489 22.6541 21.3179 21.9868 21.9852C21.3195 22.6525 20.6505 23.0622 19.8616 23.3695C19.0982 23.6655 18.226 23.8688 16.949 23.928C15.6687 23.9856 15.2607 24 12.0008 24C8.74095 24 8.33287 23.9856 7.05261 23.928C5.77555 23.8688 4.90338 23.6671 4.14003 23.3695C3.35107 23.0622 2.68214 22.6525 2.0148 21.9852C1.34747 21.3179 0.937788 20.6489 0.630526 19.86C0.334467 19.0966 0.131226 18.2244 0.0720144 16.9474C0.0144029 15.6671 0 15.2591 0 11.9992C0 8.73935 0.0144029 8.33127 0.0720144 7.05101C0.129626 5.77395 0.332867 4.90178 0.630526 4.13843C0.937788 3.34947 1.34747 2.67894 2.0148 2.0132C2.68214 1.34587 3.35107 0.936187 4.14003 0.628926C4.90338 0.332867 5.77555 0.129626 7.05261 0.0720144C8.33287 0.0128025 8.74095 0 12.0008 0C15.2607 0 15.6687 0.0144028 16.949 0.0720144C18.226 0.129626 19.0982 0.332867 19.8616 0.630526C20.6505 0.937788 21.3195 1.34747 21.9868 2.0148C22.6541 2.68214 23.0638 3.35107 23.3711 4.14003C23.6671 4.90338 23.8704 5.77555 23.928 7.05261C23.9872 8.33287 24 8.74095 24 12.0008C24 15.2607 23.9856 15.6687 23.928 16.949V16.9474Z" fill="var(--fill-0, white)"/>
</svg>
