<svg preserveAspectRatio="none" width="100%" height="100%" overflow="visible" style="display: block;" viewBox="0 0 104 104" fill="none" xmlns="http://www.w3.org/2000/svg">
<g id="Group 65">
<circle id="Ellipse 2" cx="52" cy="52" r="52" fill="var(--fill-0, #FCBE17)"/>
<g id="envelope-regular 1">
<path id="Vector" d="M34 38.5C33.175 38.5 32.5 39.175 32.5 40V42.0719L48.6719 55.3469C50.6125 56.9406 53.3969 56.9406 55.3375 55.3469L71.5 42.0719V40C71.5 39.175 70.825 38.5 70 38.5H34ZM32.5 47.8937V64C32.5 64.825 33.175 65.5 34 65.5H70C70.825 65.5 71.5 64.825 71.5 64V47.8937L58.1875 58.825C54.5875 61.7781 49.4031 61.7781 45.8125 58.825L32.5 47.8937ZM28 40C28 36.6906 30.6906 34 34 34H70C73.3094 34 76 36.6906 76 40V64C76 67.3094 73.3094 70 70 70H34C30.6906 70 28 67.3094 28 64V40Z" fill="var(--fill-0, black)"/>
</g>
</g>
</svg>
