<svg preserveAspectRatio="none" width="100%" height="100%" overflow="visible" style="display: block;" viewBox="0 0 86.625 77" fill="none" xmlns="http://www.w3.org/2000/svg">
<g id="stairs-solid 1" clip-path="url(#clip0_0_106)">
<path id="Vector" d="M57.75 9.625C57.75 6.96309 59.9006 4.8125 62.5625 4.8125H81.8125C84.4744 4.8125 86.625 6.96309 86.625 9.625C86.625 12.2869 84.4744 14.4375 81.8125 14.4375H67.375V28.875C67.375 31.5369 65.2244 33.6875 62.5625 33.6875H48.125V48.125C48.125 50.7869 45.9744 52.9375 43.3125 52.9375H28.875V67.375C28.875 70.0369 26.7244 72.1875 24.0625 72.1875H4.8125C2.15059 72.1875 0 70.0369 0 67.375C0 64.7131 2.15059 62.5625 4.8125 62.5625H19.25V48.125C19.25 45.4631 21.4006 43.3125 24.0625 43.3125H38.5V28.875C38.5 26.2131 40.6506 24.0625 43.3125 24.0625H57.75V9.625Z" fill="var(--fill-0, white)"/>
</g>
<defs>
<clipPath id="clip0_0_106">
<rect width="86.625" height="77" fill="white"/>
</clipPath>
</defs>
</svg>
