<svg preserveAspectRatio="none" width="100%" height="100%" overflow="visible" style="display: block;" viewBox="0 0 68.8658 78.7038" fill="none" xmlns="http://www.w3.org/2000/svg">
<path id="Vector" d="M4.91898 0C7.6398 0 9.83797 2.19817 9.83797 4.91898V7.37848L20.4445 4.73452C26.3012 3.2742 32.4807 3.95056 37.8916 6.656C45.0087 10.2223 53.3864 10.2223 60.5035 6.656L61.9792 5.91815C65.1458 4.31948 68.8658 6.62526 68.8658 10.1608V53.1558C68.8658 55.2002 67.5899 57.0448 65.6684 57.7673L60.3344 59.7657C53.2326 62.425 45.3315 62.0099 38.5525 58.6281C32.7266 55.7075 26.0552 54.985 19.7221 56.5683L9.83797 59.0278V73.7848C9.83797 76.5056 7.6398 78.7038 4.91898 78.7038C2.19817 78.7038 0 76.5056 0 73.7848V61.4873V51.3419V9.83797V4.91898C0 2.19817 2.19817 0 4.91898 0ZM9.83797 28.7607L19.6759 26.624V36.6925L9.83797 38.8292V48.8824L17.3394 47.007C18.1234 46.8072 18.892 46.6381 19.6759 46.4998V36.6772L25.6556 35.3859C26.9314 35.1093 28.2227 35.0016 29.5139 35.0631V25.2252C31.6045 25.2867 33.695 25.6248 35.7241 26.209L39.3519 27.2696V37.5226L32.9418 35.6319C31.8197 35.3091 30.6668 35.1093 29.5139 35.0478V46.0232C32.865 46.3153 36.1699 47.0532 39.3519 48.2368V37.5073L42.8413 38.5372C44.9165 39.152 47.0378 39.521 49.1898 39.6747V29.806C47.9908 29.683 46.7918 29.4524 45.6236 29.1142L39.3519 27.2696V17.7391C37.3535 17.155 35.3859 16.3864 33.4798 15.4333C32.2193 14.8031 30.882 14.3573 29.5139 14.0806V25.2098C27.5156 25.1483 25.5172 25.3328 23.565 25.7632L19.6759 26.624V15.0644L9.83797 17.5239V28.7607ZM49.1898 51.6032C51.7723 51.8338 54.4009 51.4956 56.8758 50.5579L59.0278 49.7586V38.737L57.8134 39.0137C54.985 39.6747 52.0797 39.8899 49.1898 39.7054V51.6032ZM59.0278 28.6377V17.7545C55.8151 18.6921 52.5102 19.1533 49.1898 19.1533V29.8213C51.3265 30.0365 53.494 29.8982 55.5999 29.4217L59.0278 28.6223V28.6377Z" fill="var(--fill-0, black)"/>
</svg>
